<svg xmlns="http://www.w3.org/2000/svg" viewBox="0 0 16869 2507" preserveAspectRatio="xMidYMid meet">
  <rect width="16869" height="2507" rx="400" ry="400" fill="#1a1a1a"/>
  <rect x="100" y="100" width="16669" height="2307" rx="280" ry="280" fill="none" stroke="#DAA520" stroke-width="160"/>
  <g transform="translate(600, 2007) scale(1, -1)">
    <path transform="translate(0, 0)" d="M522 1251 766 528 997 1251H858V1507H1401V1251H1262L1509 528L1747 1251H1595V1507H2200V1251H2036L1618 -8H1339L1102 680L877 -8H588L158 1251H-2V1507H678V1251Z" fill="#DAA520"/>
    <path transform="translate(2198, 0)" d="M651 1251V256H883V0H31V256H258V1251H31V1507H883V1251Z" fill="#DAA520"/>
    <path transform="translate(3107, 0)" d="M651 1251V256H1096V721H1391V0H43V256H258V1251H43V1507H872V1251Z" fill="#DAA520"/>
    <path transform="translate(4522, 0)" d="M1647 735Q1647 498 1546.5 333.0Q1446 168 1269.0 84.0Q1092 0 860 0H29V256H258V1251H29V1507H842Q1075 1507 1255.5 1427.5Q1436 1348 1541.5 1174.5Q1647 1001 1647 735ZM1237 748Q1237 997 1121.5 1124.0Q1006 1251 782 1251H649V256H741Q944 256 1053.5 324.5Q1163 393 1200.0 498.5Q1237 604 1237 748Z" fill="#DAA520"/>
    <path transform="translate(6279, 0)" d="M1356 1391V1507H1612V977H1356Q1243 1264 979 1264Q848 1264 746.5 1196.0Q645 1128 588.5 1010.5Q532 893 532 750Q532 616 585.5 504.5Q639 393 735.0 326.5Q831 260 956 260Q1110 260 1223.5 366.5Q1337 473 1376 647L1673 506Q1505 -18 928 -18Q680 -18 494.5 77.0Q309 172 209.0 347.0Q109 522 109 756Q109 977 212.0 1154.0Q315 1331 496.5 1431.5Q678 1532 903 1532Q1176 1532 1356 1391Z" fill="#DAA520"/>
    <path transform="translate(8014, 0)" d="M1057 1251 1372 256H1552V0H811V256H1004L932 512H541L461 256H662V0H-4V256H182L475 1251H274V1507H1260V1251ZM743 1190 608 735H870Z" fill="#DAA520"/>
    <path transform="translate(9564, 0)" d="M1180 901V1251H946V256H1171V0H326V256H555V1251H326V901H70V1507H1434V901Z" fill="#DAA520"/>
    <path transform="translate(11067, 0)" d="M1180 901V1251H946V256H1171V0H326V256H555V1251H326V901H70V1507H1434V901Z" fill="#DAA520"/>
    <path transform="translate(12570, 0)" d="M1114 1030V1251H647V905H1024V651H647V256H1114V479H1403V0H74V256H256V1251H74V1507H1403V1030Z" fill="#DAA520"/>
    <path transform="translate(14051, 0)" d="M1444 1096Q1444 958 1379.5 864.0Q1315 770 1184 711L1427 256H1622V0H1163L823 659H651V256H840V0H51V256H258V1251H51V1507H911Q1161 1507 1302.5 1401.5Q1444 1296 1444 1096ZM1034 1079Q1034 1165 979.0 1208.0Q924 1251 829 1251H651V901H795Q1034 901 1034 1079Z" fill="#DAA520"/>
  </g>
</svg>